<?xml version="1.0" encoding="UTF-8"?>
<svg width="1200pt" height="1200pt" version="1.1" viewBox="0 0 1200 1200" xmlns="http://www.w3.org/2000/svg">
 <path d="m965.6 666.4h-119.6l-87.398-123.6c-17.801-25.199-46.602-40.199-77.398-40.199l-326 0.003906c-44 0-82 30-92.199 72.801l-21.801 91-54.199-0.003906c-0.80078 0-1.6016 0.19922-2.3984 0.19922v-208.2c0-60.602 49.199-109.8 109.8-109.8h261c9.1992 42 46.602 73.801 91.398 73.801h90.199c11 0 20-9 20-20v-12.398h78.602c11 0 20-9 20-20s-9-20-20-20h-78.602v-42.602h78.602c11 0 20-9 20-20s-9-20-20-20h-78.602v-12.398c0-11-9-20-20-20h-90.199c-44.801 0-82.199 31.602-91.398 73.801h-261c-82.602 0-149.8 67.199-149.8 149.8l0.003906 219.4c-26.402 14.801-44.602 43-44.602 75.398v114.2c0 11 9 20 20 20h119c9.1992 44.199 48.602 77.602 95.398 77.602 47 0 86.199-33.199 95.398-77.398h342c9.1992 44.199 48.602 77.398 95.398 77.398 47 0 86.199-33.398 95.398-77.602l117.41 0.003906c11 0 20-9 20-20v-66.801c0-74-60.199-134.4-134.4-134.4zm-318.8-391.6h70.199v107.4h-70.199c-29.602 0-53.801-24.199-53.801-53.801 0-29.598 24.199-53.598 53.801-53.598zm-99 267.8h133.2c17.801 0 34.602 8.6016 44.801 23.199l71.199 100.6-249.2-0.003906zm-245.8 42c6-24.801 27.801-42 53.398-42h152.6v123.8l-225.6-0.003906zm32.602 340.6c-31.801 0-57.602-25.801-57.602-57.602 0-31.801 25.801-57.602 57.602-57.602 31.801 0 57.602 25.801 57.602 57.602-0.003906 31.801-25.805 57.602-57.602 57.602zm532.8 0c-31.801 0-57.602-25.801-57.602-57.602 0-31.801 25.801-57.602 57.602-57.602 31.801 0 57.602 25.801 57.602 57.602 0 31.801-25.801 57.602-57.602 57.602zm192.6-77.598h-97c-9.1992-44.199-48.602-77.602-95.398-77.602-46.801 0-86.199 33.398-95.398 77.602h-342.2c-9.1992-44.199-48.602-77.602-95.398-77.602-47 0-86.199 33.398-95.398 77.602h-99.203v-94.199c0-26 21-47 47-47h778.6c52 0 94.398 42.398 94.398 94.398z" fill="#007335"/>
</svg>
