<?xml version="1.0" encoding="UTF-8"?>
<svg width="1200pt" height="1200pt" version="1.1" viewBox="0 0 1200 1200" xmlns="http://www.w3.org/2000/svg">
 <g fill="#007335">
  <path d="m487.5 750c103.38 0 187.5-84.117 187.5-187.5s-84.117-187.5-187.5-187.5-187.5 84.117-187.5 187.5 84.117 187.5 187.5 187.5zm0-168.75c-41.344 0-75-33.637-75-75 0-34.848 24-63.953 56.25-72.336v-2.6641c0-10.363 8.3867-18.75 18.75-18.75s18.75 8.3867 18.75 18.75v2.6641c32.25 8.3828 56.25 37.488 56.25 72.336 0 10.363-8.3867 18.75-18.75 18.75s-18.75-8.3867-18.75-18.75c0-20.672-16.809-37.5-37.5-37.5s-37.5 16.828-37.5 37.5 16.809 37.5 37.5 37.5c41.344 0 75 33.637 75 75 0 34.848-24 63.953-56.25 72.336v2.6641c0 10.363-8.3867 18.75-18.75 18.75s-18.75-8.3867-18.75-18.75v-2.6641c-32.25-8.3828-56.25-37.488-56.25-72.336 0-10.363 8.3867-18.75 18.75-18.75s18.75 8.3867 18.75 18.75c0 20.672 16.809 37.5 37.5 37.5s37.5-16.828 37.5-37.5-16.809-37.5-37.5-37.5z"/>
  <path d="m900 75c-124.07 0-225 100.95-225 225 0 111.25 81.262 203.67 187.5 221.61v528.39h-37.5v-393.75c0-10.355-8.3945-18.75-18.75-18.75h-75c-10.355 0-18.75 8.3945-18.75 18.75v393.75h-37.5v-281.25c0-10.355-8.3945-18.75-18.75-18.75h-75c-10.355 0-18.75 8.3945-18.75 18.75v281.25h-37.5v-168.75c0-10.355-8.3945-18.75-18.75-18.75h-75c-10.355 0-18.75 8.3945-18.75 18.75v168.75h-150v-605.32c64.512-16.77 112.5-74.973 112.5-144.68v-75c0-20.727-16.789-37.5-37.5-37.5v-75c0-20.727-16.789-37.5-37.5-37.5s-37.5 16.773-37.5 37.5v75h-75v-75c0-20.727-16.789-37.5-37.5-37.5s-37.5 16.773-37.5 37.5v75c-20.711 0-37.5 16.773-37.5 37.5v75c0 69.703 47.988 127.91 112.5 144.68v642.82c0 20.727 16.789 37.5 37.5 37.5h675c20.711 0 37.5-16.773 37.5-37.5v-565.89c106.24-17.941 187.5-110.36 187.5-221.61 0-124.05-100.93-225-225-225zm73.668 213.23-75 187.5c-2.918 7.2969-9.9375 11.738-17.336 11.77h-0.19141c-2.2852-0.015625-4.6094-0.43359-6.8398-1.332-9.6133-3.8438-14.301-14.758-10.457-24.352l64.727-161.79h-84.816c-6.5 0-12.523-3.3711-15.949-8.8984-3.4258-5.5312-3.7344-12.414-0.82422-18.238l75-150c4.6523-9.2305 15.91-13.074 25.16-8.3867 9.2656 4.6523 13.02 15.895 8.3867 25.16l-61.434 122.86h82.16c6.2266 0 12.031 3.0781 15.527 8.2383 3.4805 5.1641 4.1953 11.684 1.8867 17.469z"/>
 </g>
</svg>
