<?xml version="1.0" encoding="UTF-8"?>
<svg width="1200pt" height="1200pt" version="1.1" viewBox="0 0 1200 1200" xmlns="http://www.w3.org/2000/svg">
 <g>
  <path d="m1123.1 770.73-157.82-78.91-117.82-206.18c-15.637-27.637-45.09-44.727-76.91-44.727l-341.09 0.003906c-31.637 0-61.09 17.09-76.91 44.547l-59.453 104.18c-16.91 29.816-41.453 54.547-70.91 71.637-13.816 8-28.547 14-43.637 18.363l0.003906-273.28c0-87.09 70.91-158 158-158h396.36c9.0898 79.09 76.363 140.91 158 140.91h87.453v34.727c0 10 8.1836 18.184 18.184 18.184s18.184-8.1836 18.184-18.184v-52.184h105.09c29.453 0 53.453-24 53.453-53.453s-24-53.453-53.453-53.453h-105.09v-69.273h105.09c29.453 0 53.453-24 53.453-53.453s-24-53.453-53.453-53.453h-105.09l-0.003907-34.547c0-10-8.1836-18.184-18.184-18.184s-18.184 8.1836-18.184 18.184v17.09h-87.453c-81.637 0-148.91 61.637-158 140.91h-396.54c-107.09 0-194.36 87.09-194.36 194.36v280c-5.8164 0.54688-11.637 1.0898-17.453 1.0898-58.547 0-106.18 47.637-106.18 106.18v140.91c0 58.547 47.637 106.18 106.18 106.18h18.91c8.9102 69.453 68.363 123.27 140.18 123.27 71.816 0 131.09-53.816 140.18-123.27h335.64c8.9102 69.453 68.363 123.27 140.18 123.27 71.816 0 131.09-53.816 140.18-123.27h35.816c58.547 0 106.18-47.637 106.18-106.18v-68.91c-0.19141-40.367-22.555-76.91-58.738-95.094zm-3.6367-469.45c9.4531 0 17.09 7.6367 17.09 17.09s-7.6367 17.09-17.09 17.09h-105.09v-34h105.09zm17.094-159.09c0 9.4531-7.6367 17.09-17.09 17.09h-105.09l-0.003907-34.184h105.09c9.457 0 17.094 7.6367 17.094 17.094zm-246-34.73h87.453v245.45h-87.453c-67.637 0-122.73-55.09-122.73-122.73-0.003906-67.633 55.09-122.73 122.73-122.73zm254.54 756c-28.547-0.36328-51.453-23.637-51.453-52.184 0-4.7266 0.72656-9.2734 2-13.637l11.273 5.6367c22.906 11.641 37.453 34.547 38.18 60.184zm-1090.4-53.637h51.637v51.637h-51.637zm228.73 317.82c-57.816 0-104.91-47.09-105.09-104.91v-0.18359-0.18359c0.18359-57.816 47.273-104.91 105.09-104.91 58 0 105.09 47.09 105.09 105.09 0.003906 58.008-47.09 105.1-105.09 105.1zm616 0c-58 0-105.09-47.09-105.09-105.09s47.09-105.09 105.09-105.09c57.816 0 104.91 47.09 105.09 104.91v0.18359 0.18359c-0.17969 57.992-47.27 104.9-105.09 104.9zm176-123.09h-35.816c-8.9102-69.453-68.363-123.27-140.18-123.27-71.816 0-131.27 53.816-140.18 123.27h-335.63c-8.9102-69.453-68.363-123.27-140.18-123.27-71.816 0-131.27 53.816-140.18 123.27h-18.723c-38.547 0-69.816-31.273-69.816-69.816v-36.727h70c10 0 18.184-8.1836 18.184-18.184v-88c0-10-8.1836-18.184-18.184-18.184h-66.73c8.7266-28.547 35.09-49.453 66.547-49.453 12 0 23.816-1.2734 35.637-3.0898 2.5469 0 4.9102-0.54688 7.0898-1.4531 25.637-4.9102 50.363-13.453 73.09-26.727 35.09-20.363 64.184-49.816 84.363-85.09l59.453-104c9.2734-16.184 26.547-26.184 45.273-26.184h340.91c18.727 0 36 10.184 45.273 26.363l120.55 210.91c1.8164 3.0898 4.5469 5.6367 7.6367 7.2734l118.73 59.273c-3.4531 9.6367-5.4531 19.637-5.4531 30 0 48.727 39.453 88.184 88 88.547v34.727c0.17969 38.355-31.094 69.812-69.641 69.812z"/>
  <path d="m792 520.73c-3.2734-5.8164-9.2734-9.2734-15.816-9.2734h-352.18c-6.7266 0-13.09 3.8164-16.184 9.8164l-53.453 103.45c-2.5469 4.3633-4.9102 8.7266-7.2734 13.273-7.8164 14.184-15.09 27.637-24.547 37.816-4.9102 5.2734-6.1836 13.09-3.2734 19.637 2.9102 6.5469 9.4531 10.91 16.727 10.91h528.36c6.3633 0 12.363-3.4531 15.637-8.9102 3.2734-5.6367 3.2734-12.363 0.18359-18zm-413.09 134.55c2.3633-4.1836 4.5469-8.5469 7.2734-13.273l48.727-94.184h146.91v122.18h-210.91c2.7266-4.9102 5.4531-9.8164 8-14.727zm239.27 14.543v-122.18h147.27l67.816 122.18z"/>
  <path d="m283.45 951.64c-39.09 0-71.09 31.816-71.09 71.09 0 39.273 31.816 71.09 71.09 71.09s71.09-31.816 71.09-71.09c0.003906-39.273-31.816-71.09-71.09-71.09zm0 105.64c-19.09 0-34.727-15.453-34.727-34.727s15.637-34.727 34.727-34.727 34.727 15.453 34.727 34.727c0.003906 19.27-15.633 34.727-34.727 34.727z"/>
  <path d="m899.45 951.64c-39.09 0-71.09 31.816-71.09 71.09 0 39.273 31.816 71.09 71.09 71.09s71.09-31.816 71.09-71.09c0.003906-39.273-31.996-71.09-71.09-71.09zm0 105.64c-19.09 0-34.727-15.453-34.727-34.727s15.637-34.727 34.727-34.727 34.727 15.453 34.727 34.727c0.003906 19.27-15.633 34.727-34.727 34.727z"/>
  <path d="m476.73 740.36h-52.91c-10 0-18.184 8.1836-18.184 18.184s8.1836 18.184 18.184 18.184h52.91c10 0 18.184-8.1836 18.184-18.184s-8-18.184-18.184-18.184z"/>
  <path d="m749.82 740.36h-52.91c-10 0-18.184 8.1836-18.184 18.184s8.1836 18.184 18.184 18.184h52.91c10 0 18.184-8.1836 18.184-18.184s-8.1836-18.184-18.184-18.184z"/>
 </g>
</svg>
