<?xml version="1.0" encoding="UTF-8"?>
<svg width="1200pt" height="1200pt" version="1.1" viewBox="0 0 1200 1200" xmlns="http://www.w3.org/2000/svg">
 <g fill="#007335">
  <path d="m456.6 409.2h-153.2c-11 0-20 9-20 20v82.199h-20.801c-52.398 0-94.801 42.602-94.801 95v398.8c0 52.398 42.602 95 94.801 95h675c52.398 0 95-42.602 95-95v-398.8c0-52.398-42.602-95-95-95h-16v-82.199c0-11-9-20-20-20h-153.2c-11 0-20 9-20 20v82.199h-108.4v-173.2c0-84.398-68.602-153-153-153h-14.398c-9.4023-48.398-52-85.199-103.2-85.199h-61.199c-11 0-20 9-20 20v25.801h-68c-11 0-20 9-20 20s9 20 20 20h68v39h-68c-11 0-20 9-20 20s9 20 20 20h68v25.801c0 11 9 20 20 20h61.199c51.199 0 93.801-36.801 103.2-85.199h14.398c62.199 0 113 50.602 113 113v173.2h-103.4v-82.199c0.003906-11.203-8.9961-20.203-19.996-20.203zm-107.2-138.6h-41.199v-130.6h41.199c36 0 65.199 29.199 65.199 65.199 0.003906 36-29.199 65.402-65.199 65.402zm-26 178.6h113.2v62.199h-113.2zm445 0h113.2v62.199h-113.2zm-20 102.2h189.2c30.199 0 55 24.602 55 55v398.8c0 30.199-24.602 55-55 55h-675.2c-30.199 0-54.801-24.602-54.801-55l0.003906-398.8c0-30.199 24.602-55 54.801-55z"/>
  <path d="m556.6 818 50.801 10.398-63.801 104c-5.8008 9.3984-2.8008 21.801 6.6016 27.602 3.1992 2 6.8008 3 10.398 3 6.8008 0 13.199-3.3984 17-9.6016l78.801-128.4c3.3984-5.6016 3.8008-12.398 1.1992-18.398-2.6016-6-8-10.398-14.398-11.602l-54-11 49.199-107c4.6016-10 0.19922-22-9.8008-26.602-10-4.6016-22-0.19922-26.602 9.8008l-59.801 129.8c-2.6016 5.6016-2.3984 12 0.39844 17.398 3.0039 5.6016 8.0039 9.4023 14.004 10.602z"/>
  <path d="m772.8 703.6h104.4c11 0 20-9 20-20s-9-20-20-20h-104.4c-11 0-20 9-20 20s8.8008 20 20 20z"/>
  <path d="m427.2 663.6h-32.199v-32.199c0-11-9-20-20-20s-20 9-20 20v32.199h-32.199c-11 0-20 9-20 20s9 20 20 20h32.199v32.199c0 11 9 20 20 20s20-9 20-20v-32.199h32.199c11 0 20-9 20-20s-9-20-20-20z"/>
 </g>
</svg>
