<?xml version="1.0" encoding="UTF-8"?>
<svg width="1200pt" height="1200pt" version="1.1" viewBox="0 0 1200 1200" xmlns="http://www.w3.org/2000/svg">
 <g fill="#007335">
  <path d="m807.6 601.2c0-3.6016-2.3984-6-4.8008-8.3984-2.3984-2.3984-6-2.3984-8.3984-2.3984-6 0-138 13.199-182.4 68.398-9.6016 12-16.801 25.199-21.602 42-78-30-180-33.602-186-33.602s-12 4.8008-12 12-3.6016 186 61.199 254.4c42 44.398 110.4 54 162 54 37.199 0 66-4.8008 68.398-6h1.1992 1.1992c1.1992 0 2.3984-1.1992 3.6016-2.3984 1.1992-1.1992 1.1992-2.3984 2.3984-3.6016v-1.1992-1.1992c1.1992-3.6016 19.199-68.398 7.1992-135.6 31.199-8.3984 56.398-22.801 74.398-43.199 45.605-55.199 33.605-187.2 33.605-193.2zm-177.6 73.199c26.398-32.398 93.602-48 134.4-55.199l-110.4 120c-10.801-10.801-25.199-20.398-40.801-28.801 3.6016-14.398 8.4023-26.398 16.801-36zm44.398 271.2-241.2-252c52.801 4.8008 160.8 18 205.2 64.801 51.602 53.996 43.203 145.2 36 187.2zm-204-28.801c-43.199-45.602-52.801-153.6-54-206.4l240 250.8c-43.199 4.7969-136.8 7.1953-186-44.402zm285.6-139.2c-14.398 16.801-34.801 28.801-60 36-4.8008-19.199-13.199-38.398-26.398-56.398l116.4-126c0 45.598-4.8008 116.4-30 146.4z"/>
  <path d="m171.6 1075.2h864c7.1992 0 12-4.8008 12-12s-4.8008-12-12-12h-14.398l-0.003906-806.4c0-7.1992-4.8008-12-12-12h-229.2c-7.1992 0-12 4.8008-12 12v272.4h-31.199v-384c0-7.1992-4.8008-12-12-12h-247.2c-7.1992 0-12 4.8008-12 12v450h-31.199l-0.003906-236.4c0-7.1992-4.8008-12-12-12h-231.6c-7.1992 0-12 4.8008-12 12v704.4h-7.1992c-7.1992 0-12 4.8008-12 12s6 12 12 12zm31.199-716.4h207.6v237.6c0 7.1992 4.8008 12 12 12h55.199c7.1992 0 12-4.8008 12-12v-450h224.4v384c0 7.1992 4.8008 12 12 12h54c7.1992 0 12-4.8008 12-12v-273.6h206.4v794.4h-795.6z"/>
 </g>
</svg>
