<?xml version="1.0" encoding="UTF-8"?>
<svg width="1200pt" height="1200pt" version="1.1" viewBox="0 0 1200 1200" xmlns="http://www.w3.org/2000/svg">
 <path d="m1078.7 349.92c-0.48047-0.98047-1.082-1.8672-1.8086-2.6836-0.21094-0.23828-0.375-0.49609-0.60547-0.71875-0.91016-0.87109-1.9219-1.6367-3.0977-2.1953l-468-223.16c-3.2578-1.5586-7.0664-1.5586-10.324 0l-468 223.16c-1.1719 0.55859-2.1875 1.3281-3.0977 2.1953-0.23047 0.21875-0.39453 0.48047-0.60547 0.71875-0.72656 0.81641-1.3281 1.7031-1.8086 2.6836-0.17578 0.35938-0.34375 0.69922-0.48438 1.0742-0.49609 1.3242-0.84375 2.7031-0.84375 4.1641v98.035c0 6.6289 5.3711 12 12 12s12-5.3711 12-12v-86.035h238.51v150.8l-255.68 121.92c-1.1719 0.55859-2.1875 1.3281-3.0938 2.1992-0.22656 0.21484-0.38672 0.47266-0.59766 0.70703-0.73047 0.81641-1.3359 1.7109-1.8164 2.6953-0.17578 0.35547-0.34375 0.69531-0.48438 1.0703-0.49219 1.3203-0.83984 2.6992-0.83984 4.1602v98.027c0 6.6289 5.3711 12 12 12s12-5.3711 12-12v-86.027h238.51v68.242l-155.18 331.97c-2.2383 4.7891-1.082 10.477 2.8555 14.012 3.9492 3.5273 9.7266 4.0586 14.238 1.3281l348.36-211.25 352.61 211.29c1.9141 1.1406 4.0391 1.7031 6.168 1.7031 2.8984 0 5.7773-1.0469 8.0391-3.0938 3.9141-3.5352 5.0703-9.2109 2.8281-13.984l-155.17-331.96v-68.242l248.74-0.003906v86.027c0 6.6289 5.3711 12 12 12s12-5.3711 12-12v-98.027c0-1.4609-0.34766-2.8438-0.83984-4.168-0.14062-0.375-0.30469-0.71094-0.48047-1.0664-0.48438-0.98437-1.0859-1.8789-1.8203-2.6992-0.20703-0.23047-0.36719-0.48438-0.59375-0.70312-0.91016-0.87109-1.9219-1.6406-3.0977-2.1992l-265.91-126.8v-145.92h248.74v86.035c0 6.6289 5.3711 12 12 12s12-5.3711 12-12v-98.035c0-1.4609-0.34766-2.8398-0.83984-4.1641-0.14062-0.375-0.30859-0.71484-0.48438-1.0742zm-478.68-204.62 183.26 87.383v110.48h-376.75v-105.6zm-414.96 197.86 197.46-94.156v94.156zm0 295.55 197.46-94.16v94.16zm221.46-105.6 193.49-92.27 183.26 87.387v110.48h-376.75zm-6.7734 217.66 169.82 102.26-303.7 184.17zm524.34 286.77-307.84-184.46 173.75-102.42zm-140.82-310.77-190.45 112.26-186.3-112.18v-64.133h376.75zm231.7-88.059h-207.7v-99.043zm-231.7-137.07-178.09-84.922c-3.2695-1.5586-7.0664-1.5586-10.336 0l-188.33 89.805 0.003906-139.36h376.75zm24-257.52 207.7 99.039h-207.7z" fill="#007335"/>
</svg>
