<?xml version="1.0" encoding="UTF-8"?>
<svg width="1200pt" height="1200pt" version="1.1" viewBox="0 0 1200 1200" xmlns="http://www.w3.org/2000/svg">
 <path d="m999.35 441.77c0.23828-3.3125-0.91016-6.5898-3.1914-9.0234-2.2812-2.4375-5.4492-3.8164-8.7734-3.8164h-39.863c-0.27734-7.1641-0.27734-9.2266-0.27734-16.188 0-18.324-5.207-35.953-14.891-51.121 48.781-17.41 82.559-64.031 82.559-117.18 0-68.617-55.82-124.44-124.45-124.44-44.281 0-84.227 22.922-106.66 60.504-11.316-3.625-23.09-5.4609-35.125-5.4609-63.59 0-115.31 51.73-115.31 115.31 0 66.348 56.305 120.02 123.68 115-0.20313 2.4727-0.30078 4.9453-0.30078 7.3906 0 1.3906-0.058594 3.4805-0.12109 5.9141-0.097656 3.7305-0.15625 7.1055-0.16797 10.262h-63.07c-3.3242 0-6.5156 1.3789-8.7734 3.8164-2.2695 2.4375-3.4336 5.7109-3.1914 9.0234 0.12109 1.7148 10.789 162.12-29.82 342.93-52.883-228.77-39.48-433.25-39.301-435.85 0.23828-3.3125-0.91016-6.5898-3.1914-9.0234-2.2773-2.4375-5.4453-3.8047-8.7812-3.8047h-66.059c-0.23828-5.2188-0.80469-10.836-1.4766-16.066 49.645 3.793 91.922-36.383 91.922-85.777 0-47.426-38.578-86.004-85.992-86.004-14.82 0-29.074 3.7422-41.809 10.895-18.816-24.348-48.156-39.047-79.191-39.047-36.551 0-69.312 19.441-86.914 50.555-8.3984-4.3086-17.461-6.875-26.844-7.5859-18.793-27.031-49.031-42.969-82.199-42.969-55.285 0-100.27 44.988-100.27 100.27 0 55.285 44.988 100.27 100.27 100.27 12.852 0 25.273-2.4727 36.898-7.1172-0.78125 6.6602-1.2852 14.09-1.5234 22.559h-21.73c-3.3242 0-6.5156 1.3789-8.7734 3.8164-2.2695 2.4375-3.4336 5.7109-3.1914 9.0234 0.23828 3.3359 22.223 337.19-101.02 629.75-0.625 1.4648-0.9375 3.0469-0.9375 4.6562v84.77c0 6.6367 5.3633 12 12 12h568.77c6.6367 0 12-5.3633 12-12v-35.004h355.23c6.6367 0 12-5.3633 12-12v-68.27c0-1.6094-0.3125-3.1914-0.9375-4.6562-99-235.03-81.395-503.61-81.215-506.3zm-218.98-59.066c-2.9297-3.0469-7.2461-4.3555-11.316-3.3828-59.34 13.379-111.68-31.98-111.68-88.957 0-50.352 40.957-91.309 91.309-91.309 12.469 0 24.562 2.4844 35.965 7.3789 5.832 2.4961 12.719 0 15.527-5.7734 17.004-34.953 51.59-56.66 90.289-56.66 55.391 0 100.45 45.059 100.45 100.45 0 48.086-34.246 89.555-81.434 98.605-4.3203 0.82812-7.8477 3.9727-9.1914 8.1836-1.3203 4.2109-0.23828 8.7969 2.832 11.965 12.973 13.379 20.125 30.984 20.125 49.547 0 7.0078 0.011718 9.2539 0.26562 16.188h-143.07c0.023438-3.625 0.12109-7.3555 0.16797-9.6602 0.070313-2.6875 0.13281-4.9922 0.13281-6.5273 0-6.0977 0.85156-12.348 2.5547-18.613 1.0898-4.0703-0.023437-8.4023-2.9297-11.438zm-115.63 449.41c45.395-170.72 43.055-333.23 41.258-379.19h229.93c0.023437 0 0.035156 0.011718 0.058593 0.011718 0.16797 0 0.33594 0 0.50391-0.011718h38.293c-2.1484 55.559-4.9219 281.4 76.895 487.79l-353.33-0.003906c-13.355-35.531-24.758-71.398-34.402-107.03 0.23828-0.53906 0.62109-0.98438 0.78906-1.5703zm-377.2-538.34c0.15625-0.44531 0.097656-0.88672 0.20312-1.332 0.20312-0.80469 0.34766-1.5859 0.37109-2.4258 0.023437-0.76953-0.046876-1.4883-0.16797-2.2305-0.12109-0.75781-0.27734-1.4766-0.53906-2.207-0.27734-0.78125-0.66016-1.4648-1.0938-2.1602-0.23828-0.39453-0.32422-0.83984-0.61328-1.2109-0.19141-0.23828-0.46875-0.34766-0.67188-0.57422-0.53906-0.60156-1.1641-1.0781-1.8359-1.5586-0.64844-0.46875-1.2852-0.91016-2.0039-1.2344-0.28906-0.13281-0.48047-0.37109-0.78125-0.48047-0.44531-0.16797-0.89844-0.097656-1.3555-0.20312-0.80469-0.19141-1.5586-0.33594-2.3867-0.35938-0.76953-0.023437-1.4766 0.046875-2.2188 0.15625-0.76953 0.12109-1.5 0.27734-2.2422 0.55078-0.76953 0.27734-1.4414 0.64844-2.1367 1.0781-0.39453 0.23828-0.85156 0.32422-1.2227 0.61328-13.609 10.703-29.879 16.355-47.09 16.355-42.059 0-76.273-34.223-76.273-76.273 0.003906-42.055 34.238-76.277 76.289-76.277 26.953 0 51.371 13.859 65.328 37.105 2.1836 3.6133 6.0859 5.8086 10.285 5.8086 0.81641 0 1.6211-0.070312 1.332-0.13281 10.656 0 20.867 3.6719 29.543 10.598 2.9766 2.3867 6.9492 3.2383 10.598 2.2188 3.6836-0.98438 6.6836-3.6719 8.0625-7.2227 11.531-29.379 39.32-48.375 70.809-48.375 26.785 0 51.91 14.426 65.566 37.656 1.7539 2.9648 4.6914 5.0391 8.0625 5.6992 3.3711 0.67188 6.875-0.17969 9.6133-2.2695 10.969-8.4609 24.023-12.926 37.766-12.926 34.188 0 61.992 27.816 61.992 62.004 0 39.816-37.98 71.508-79.297 59.426-4.0781-1.2109-8.5938-0.10938-11.688 2.8672-3.1094 2.9883-4.3672 7.4023-3.3125 11.578 1.4766 5.8672 3.2148 18.492 3.8047 27.973l-229.08 0.003907c0.57422-19.078 2.4844-31.645 6.3828-42.238zm-39.492 66.227h339.67c-2.6523 63.469-7.8242 350.54 96.73 611.26h-533.13c104.55-260.71 99.383-547.79 96.73-611.26zm-102.55 696v-60.742h544.77v60.742zm568.77-47.004v-25.754c0-1.6094-0.3125-3.1914-0.9375-4.6562-1.9453-4.6094-3.7422-9.2539-5.6055-13.871h349.78v44.27h-343.23z" fill="#007335"/>
</svg>
