<?xml version="1.0" encoding="UTF-8"?>
<svg width="1200pt" height="1200pt" version="1.1" viewBox="0 0 1200 1200" xmlns="http://www.w3.org/2000/svg">
 <g fill="#007335">
  <path d="m597 60.191h6v1079.6h-6z"/>
  <path d="m1089.6 234.1c1.8359 0 4.0664 0.73047 5.2578 1.7539 0.57422 0.48047 1.043 1.0664 1.3906 1.7266 2.5547 4.7539 3.2656 9.9492 3.8984 14.543 0.22656 1.5977 0.43359 3.1797 0.73047 4.7266 2.6641 21 4.1172 42 5.5195 62.316l0.14453 2.0898c1.5117 24.66 2.9531 49.285 4.1406 73.895 1.3555 27.77 2.6406 55.547 3.8281 83.305l1.0312 25.043c0.66016 15.84 1.3086 31.691 1.9219 47.52 0.52734 11.809 0.97266 23.676 1.4141 35.52 0.52734 13.836 1.0547 27.672 1.6914 41.496 0.53906 15.395 1.1406 30.73 1.7383 46.055l4.2617 105.76c0.64844 16.645 1.3906 33.254 2.1484 49.871l1.9805 43.234c1.0781 21.66 2.1602 43.273 3.5508 64.883 1.2969 23.855 2.9531 45.434 5.0625 65.988 0.3125 1.7891 0.57422 4.0195 0.83984 6.2539 0.60156 5.0039 1.1641 9.7422 2.9648 13.754 1.3555 3.0234 0 6.5742-3.0234 7.9336-3.0352 1.3555-6.5742 0-7.9219-3.0234-2.5547-5.6875-3.2539-11.566-3.9375-17.258-0.23828-2.0391-0.48047-4.0781-0.81641-6.0703-2.1719-21.133-3.8398-42.887-5.1484-66.875-1.3906-21.613-2.4727-43.297-3.5508-65.004l-1.9922-43.273c-0.75781-16.656-1.5-33.301-2.1484-49.957l-4.2617-105.76c-0.60156-15.336-1.1992-30.684-1.7383-46.031-0.64844-13.801-1.1641-27.672-1.6914-41.543-0.44531-11.82-0.88672-23.652-1.4141-35.461-0.61328-15.863-1.2617-31.703-1.9219-47.52l-1.0312-25.043c-1.1992-27.73-2.4727-55.477-3.8281-83.23-1.1875-24.562-2.6172-49.152-4.1289-73.715l-0.125-2.0078c-1.1875-17.23-2.4102-34.945-4.332-52.391-0.45703 4.1289-0.83984 8.2578-1.2227 12.312l-0.875 9.0234c-1.6328 20.258-3.0703 40.645-4.2852 61.055-1.6211 27.277-3.1562 54.59-4.4297 81.875-1.2461 24.07-2.3867 48.156-3.4688 72.18l-3.8281 82.715c-0.63672 15.121-1.3555 30.254-2.0898 45.383-0.68359 14.293-1.3555 28.598-1.9688 42.887l-3.5 69.137c-1.0547 19.883-2.2578 39.742-3.4688 59.605l-1.6445 24.66c-1.1523 15.961-2.3281 32.473-4.0781 48.684l-0.58984 5.3516c-1.0312 9.5625-2.1133 19.453-4.9805 29.051-0.69531 3.5625-3.8516 6.5625-7.5586 6.7578-2.8438 0.023437-6.2539-1.3203-7.6562-5.8555-3.1211-9.5039-4.2344-19.414-5.3047-29.004-0.3125-2.8203-0.63672-5.6523-1.0078-8.4609-2.1484-21.012-3.6367-41.328-5.2305-63.84-1.5977-24.098-3.1094-48.156-4.4883-72.254-1.4023-24.445-2.7461-48.863-4.0547-73.297l-3.9375-73.293c-0.81641-16.367-1.7539-32.711-2.6875-49.055l-1.4648-26.242c-1.4648-25.105-3.0859-50.258-4.7383-75.348l-0.81641-10.559c-1.3438-17.605-2.7461-35.797-4.6562-53.617l-0.71875-6c-0.53906-4.5977-1.0664-9.0859-1.7383-13.477-0.17969 1.2344-0.34766 2.4727-0.51562 3.7305l-0.89844 6.2383c-2.832 22.957-4.7383 46.453-6.2891 66.66-1.4141 17.641-2.6172 35.293-3.793 52.945l-5.8789 91.523c-0.75781 12.949-1.5977 25.906-2.4375 38.867-0.83984 12.961-1.6914 25.922-2.4492 38.902-0.68359 9.2148-1.2969 18.336-1.9219 27.469-0.92578 13.512-1.8477 27.012-2.9297 40.488-1.668 21.445-3.5742 44.531-6.3359 67.906l-0.70703 5.2695c-1.2461 9.5273-2.5312 19.355-5.4961 28.922-2.1836 6-5.3633 7.5859-7.6797 7.8828-2.7344 0.43359-5.3633-0.85156-7.1055-3.2891-3.5508-6.2148-4.6094-12.324-5.6289-18.238-0.30078-1.7891-0.61328-3.5898-0.98438-5.3398-2.9766-19.621-4.8477-39.289-6.6719-58.309l-0.23828-2.4102c-1.8594-21.73-3.6953-43.379-5.2812-65.074-0.91016-11.27-1.7383-22.609-2.5547-33.938-0.67188-9.2891-1.3438-18.602-2.0742-27.898-1.7539-24.742-3.5508-49.465-5.5664-74.137-1.6562-22.211-3.5625-44.363-5.7461-66.504-1.8711-18.238-3.8047-37.105-7.3086-55.391-2.1836 9.8516-3.5273 20.398-4.8359 30.66l-1.2461 9.5391c-2.2578 20.879-4.4414 41.941-6.2148 63.023-1.5977 16.871-3.0352 33.707-4.4766 50.531l-0.99609 11.699c-1.4766 17.508-3.0352 35.027-4.5859 52.547l-3.1445 33.121c-1.1523 11.566-2.2812 23.148-3.6836 34.68l-0.40625 3.3359c-1.957 15.961-3.9961 32.484-8.1484 48.48-0.097656 0.39453-0.25391 0.78125-0.42188 1.1641-0.25391 0.48047-0.42188 1.043-0.625 1.6211-0.94922 2.6875-2.5195 7.1758-7.332 8.8203-0.88672 0.30078-1.8359 0.42188-2.7617 0.26563-5.9023-0.80469-7.8242-6.2148-8.7461-8.7969-0.20313-0.55078-0.37109-1.1055-0.61328-1.5586-0.22656-0.39453-0.38281-0.82812-0.50391-1.2734-4.1875-15.457-6.2773-31.43-8.3047-46.871l-1.1172-8.3047c-2.3516-19.824-4.4766-39.59-6.5156-59.328-1.2969-13.414-2.6641-26.797-4.0078-40.176l-3.2539-32.062c-1.8359-17.219-3.6719-34.414-5.8203-51.562l-0.19141-1.4023c-2.1016-15.926-4.2617-32.387-8.0742-48.07-0.13281-0.25391-0.3125-0.81641-0.52734-1.5-2.9883 10.094-4.7539 21.406-6.457 32.387l-1.2344 7.7383c-2.7734 19.559-5.1953 39.301-7.5469 59.062-2.2422 19.332-4.5352 38.711-6.8633 58.094-2.5664 21.086-4.9688 38.449-7.5352 54.66l-1.0312 5.6055c-1.8125 9.9961-3.6953 20.328-7.5117 30.227-2.3047 5.125-5.1602 7.8828-8.5938 8.543-2.6992 0.53906-5.375-0.34766-7.5117-2.4258-4.8008-6.0469-6.4453-12.637-7.8828-18.457l-0.79297-3.1562c-3.5625-15.203-5.9141-30.648-8.1953-45.574l-2.6172-18.121c-1.9219-13.559-3.8398-27.145-5.5664-40.727l-2.1367-14.676c-1.7656-12.289-3.5508-24.59-5.5664-36.852l-0.88672-4.8711c-2.1133-11.762-4.2852-23.941-8.1953-35.207-0.011719 0.011718-0.16797-0.25391-0.40625-0.76953-0.32422 0.83984-0.64844 1.7539-0.92578 2.5781l-0.75781 2.1367c-4.0078 12.695-6.4805 26.594-8.8555 40.02l-0.97266 5.4258c-2.8672 16.559-5.5078 33.215-8.1484 49.871l-2.1602 13.066c-2.7461 16.008-5.6172 32.566-9.5156 48.684l-1.1523 3.9609c-1.7773 6.2656-3.625 12.758-7.7383 18.551-2.2305 2.8203-5.3516 4.2461-8.5312 4.0664-3.1797-0.19141-6.1094-1.9805-7.8125-4.7656-4.6211-6.5742-6.6836-14.398-8.6992-21.973l-1.1172-4.1289c-3.9844-16.332-7.0781-32.855-10.066-48.816l-2.3984-12.648c-2.5547-13.453-5.1836-27.348-8.3164-40.848l-1.0547-4.2852c-2.1836-8.9023-4.2344-17.352-8.2305-24.805-1.4766 2.1719-2.5664 5.2188-3.7305 8.3984l-1.3438 3.6016c-4.6094 14.785-8.0898 30.816-11.449 46.32l-2.4492 10.957c-3.0977 13.969-6.3008 28.402-10.379 42.445l-1.2227 3.6367c-2.1719 6.5156-4.4141 13.246-9.0703 19.078-4.7773 4.9805-11.375 5.3867-15.684 1.332-5.4844-5.3516-7.9922-12.324-10.211-18.492l-1.0781-2.9531c-4.1289-12.707-7.4023-25.5-10.598-37.859-1.2852-5.0391-2.5938-10.066-3.9375-15.098-3.5508-13.332-6.7578-25.344-11.941-36.742l-0.57422-0.96094c-0.5625-0.98437-1.8711-3.3125-2.7969-4.2227-1.8008 1.4766-3.3594 4.7383-4.668 7.4414-4.4414 9.7305-7.5352 19.895-10.523 29.746l-1.7266 5.6172c-3.5391 11.965-6.8047 22.812-10.754 33.73l-0.66016 1.6445c-2.6172 6.5156-5.5664 13.895-10.957 19.633-2.5312 2.5938-6.3477 3.8516-9.2539 3.9492-3.2656-0.046875-6.2891-1.4023-8.5195-3.8047-5.375-5.0273-8.4258-12.145-11.113-18.434l-1.043-2.4102c-3.168-7.8711-5.9297-15.758-8.6875-23.617-1.3672-3.8984-2.7344-7.7891-4.1406-11.652-3.0586-8.0039-5.9414-15.59-10.02-22.535-1.3906-1.8594-3.9102-4.5352-4.9062-4.8125-1.5977 0.43359-3.9609 4.3555-6.0586 7.8359l-0.98438 1.6328c-4.8945 9.6133-9.1094 20.004-12.551 28.859l-2.3516 5.3398c-2.7461 6.2539-5.5938 12.742-9.3242 18.781-2.9023 4.4023-9.3594 14.352-20.148 11.723-8.4492-3.3711-12.684-10.57-16.078-16.332l-1.1641-1.957c-3-5.5781-5.6172-10.98-8.2305-16.391-1.9922-4.1406-3.9844-8.2695-6.0859-12.348l-1.2969-2.2695c-3.1328-5.5664-6.0977-10.812-10.598-13.727-0.875-0.55078-2.6172-0.27734-3.5508 0.68359-4.6914 3.707-7.6211 8.6289-10.727 13.836l-1.7539 2.9141c-1.3555 2.293-2.7109 4.7031-4.0547 7.1055-4.3906 7.8594-8.9531 15.984-15.336 22.824-5.4844 5.7852-12.348 8.0391-18.863 6.2148-8.5781-3.5625-13.895-10.621-18.684-17.555-1.8359-2.6055-3.625-5.3281-5.3984-8.0273-3.6719-5.5781-7.1289-10.848-11.438-15.574-4.7539-4.8125-7.4297-4.9336-9.0859-4.6797-4.4648 1.1523-8.5078 5.9531-12.422 10.609l-4.4648 5.6289c-4.8359 6.4062-9.8398 13.031-16.512 18.371-6.3359 4.7148-13.078 6.1914-19.246 4.2969-7.9688-2.5312-13.754-8.6406-18.852-14.039l-3.5742-3.9375c-3.707-4.1172-7.1875-8.0039-11.258-11.305-3.9102-3.0352-6.9375-4.1992-10.414-3.9375-4.2344 0.70703-8.5078 4.0938-12.828 7.7891l-3.2266 3.0703c-3.7578 3.5742-7.4883 7.1406-11.543 10.441-4.7539 3.3945-10.98 7.2617-18.828 7.668-5.5664 0.39453-11.051-2.0391-14.605-3.9609l-1.5977-1.0078c-0.73047-0.44531-1.4414-0.88672-2.1953-1.4297-2.6758-1.9688-3.2539-5.7227-1.2852-8.3984s5.7461-3.2383 8.3867-1.2852c0.46875 0.34766 0.92578 0.625 1.3672 0.89844l1.5469 0.99609c3.0586 1.6211 5.7109 2.4102 7.9453 2.2188h0.046874c4.2969 0 7.6445-2.1719 11.941-5.2305 3.5039-2.8672 7.0078-6.2148 10.523-9.5625l3.4922-3.3242c5.6641-4.8477 11.641-9.5039 19.441-10.766 8.9414-0.70703 14.941 3.0859 19.285 6.4336 4.8945 3.9844 8.8672 8.4102 12.719 12.695l3.3594 3.7188c4.2969 4.5352 8.7461 9.2539 13.727 10.824 2.9766 0.91016 6.2148-0.76953 8.3516-2.3516 5.3047-4.2617 9.8516-10.285 14.258-16.105l4.8477-6.1211c4.8945-5.8203 10.453-12.422 18.984-14.578 10.414-2.1484 17.941 5.6055 20.426 8.125 5.1016 5.6055 8.9883 11.508 12.758 17.242 1.7031 2.5938 3.4062 5.1953 5.2188 7.7539 3.9727 5.7734 7.8945 11.062 12.793 13.129 2.2188 0.53906 5.0742-1.9922 6.168-3.1445 5.375-5.7461 9.3711-12.887 13.621-20.461 1.3906-2.4961 2.7852-4.9922 4.2461-7.4297l1.7148-2.8555c3.5273-5.9414 7.1875-12.086 13.117-16.715 4.3789-4.4141 12.109-5.3867 17.879-1.8242 7.0938 4.5977 11.102 11.699 14.641 17.977l1.3789 2.4102c2.2695 4.4141 4.3203 8.6523 6.3594 12.875 2.5312 5.2578 5.0625 10.5 7.8242 15.66l1.0781 1.8008c2.7461 4.668 5.5781 9.4688 9.457 11.062 1.4023 0.30078 3.9844-3.2773 6.3125-6.8047 3.2031-5.1953 5.7461-11.004 8.4492-17.148l2.2812-5.1719c3.4336-8.832 7.7773-19.598 13.164-30.098l1.1641-1.9453c3.0117-5.0039 7.1523-11.844 14.855-13.512 8.8672-0.35938 13.273 5.8203 15.996 9.5508 0.13281 0.16797 0.64844 0.88672 0.75781 1.0664 4.5703 7.8125 7.7773 16.223 10.871 24.336 1.4766 4.0664 2.8555 8.0039 4.2461 11.953 2.7109 7.7031 5.3984 15.422 8.4258 22.957l1.0078 2.3281c2.4375 5.6992 4.7539 11.09 8.5938 14.699 4.3672-3.9844 6.6602-9.7305 9.0859-15.77l0.58984-1.4648c3.7578-10.414 6.9727-21.086 10.477-32.93l1.7266-5.6406c3.1094-10.223 6.3125-20.773 10.871-30.781 2.7344-5.6875 6.0352-12.562 13.129-14.953 0.57422-0.19141 1.1641-0.28906 1.7539-0.3125h0.37109c7.7539 0 11.52 6.6719 13.777 10.691l0.75781 1.3086c5.8906 12.875 9.3711 25.945 12.758 38.578 1.5117 5.6641 2.8203 10.754 4.1289 15.816 3.1445 12.18 6.3711 24.793 10.285 36.887l1.0547 2.8555c1.7148 4.7656 3.3359 9.3008 6.0469 12.613 2.7461-3.793 4.4297-8.8906 6.2266-14.27l1.1758-3.4688c3.8867-13.391 7.0547-27.637 10.117-41.41l2.3633-10.598c3.4805-16.055 7.0195-32.352 11.941-48.07l1.3672-3.6836c1.8594-5.1602 3.9844-10.992 8.8086-15.266 2.3633-1.8711 4.9062-2.6055 7.5-2.1367 4.4883 0.70703 7.332 4.2734 8.3516 5.7852 5.4375 9.5508 7.8711 19.57 10.246 29.258l1.0547 4.2969c3.2266 13.836 5.8789 27.863 8.4492 41.438l2.3984 12.672c2.9648 15.805 6.0352 32.172 9.8867 47.988l1.1055 4.1055c1.5234 5.7227 2.9648 11.184 5.4844 15.793 1.7539-3.4336 2.9297-7.5703 4.1523-11.879l1.1172-3.8164c3.7305-15.406 6.5391-31.754 9.2656-47.578l2.1367-12.898c2.6406-16.715 5.2812-33.434 8.1836-50.09l0.96094-5.4258c2.4609-13.812 5.0039-28.105 9.3359-41.82l0.75781-2.1602c1.4766-4.2617 3.4922-10.094 9.0859-12.961 0.86328-0.44531 1.8242-0.50391 2.7734-0.67188 6.9844 0.046875 9.7422 6.3477 11.062 9.3828 0.25391 0.5625 0.48047 1.1172 0.74219 1.6094 4.5703 12.984 6.8281 25.621 9.0234 37.836l0.88672 4.9453c2.0625 12.445 3.8398 24.816 5.6289 37.199l2.1484 14.762c1.7383 13.645 3.6484 27.168 5.5664 40.691l2.5938 17.977c2.2578 14.699 4.5586 29.902 7.9805 44.473l0.79297 3.1797c0.69531 2.7734 1.3555 5.4727 2.2578 7.8945 2.6641-7.7773 4.1875-16.199 5.7969-25.043l1.0078-5.5078c2.5195-15.887 4.8945-33.133 7.4531-54.059 2.3164-19.344 4.6211-38.711 6.8516-58.031 2.3633-19.859 4.7891-39.707 7.6094-59.473l1.2344-7.7656c1.9219-12.359 3.9102-25.152 7.9336-37.402l0.71875-1.7539c1.0938-2.7227 3.8984-9.8984 11.352-8.7969 0.94922 0.15625 1.8477 0.53906 2.6406 1.1172 4.2461 3.1562 5.6758 7.8828 6.8164 11.688 0.26562 0.89844 0.52734 1.7891 0.83984 2.6289 4.1641 16.969 6.3711 33.758 8.5078 49.992l0.19141 1.4414c2.1836 17.258 4.0195 34.535 5.8555 51.816l3.2539 32.137c1.3555 13.391 2.7227 26.797 4.0195 40.188 2.0273 19.656 4.1406 39.336 6.4805 59.016l1.1055 8.2578c1.7773 13.559 3.6133 27.539 6.8633 40.922 3.2656-13.957 5.0508-28.535 6.793-42.672l0.40625-3.3242c1.3672-11.438 2.5078-22.922 3.6484-34.402l3.1328-33c1.5469-17.496 3.1094-35.004 4.5859-52.5l0.99609-11.711c1.4414-16.848 2.8789-33.719 4.4766-50.566 1.7656-21.121 3.9727-42.266 6.2539-63.406l1.2461-9.6133c1.5977-12.406 3.2383-25.246 6.4922-37.738l0.63672-2.0508c0.85156-3.0234 2.4492-8.6523 8.1953-10.32 1.7383-0.48047 3.6367-0.19141 5.125 0.85156 4.5 3.1445 5.7109 8.1602 6.5898 11.82 0.25391 1.0781 0.50391 2.1602 0.85156 3.1328 4.1172 20.34 6.1562 40.188 8.125 59.363 2.1953 22.246 4.1172 44.508 5.7617 66.758 2.0156 24.684 3.8047 49.441 5.5664 74.184 0.73047 9.2773 1.4023 18.613 2.0742 27.938 0.81641 11.293 1.6445 22.586 2.5547 33.863 1.5977 21.695 3.4219 43.285 5.2695 64.906l0.22656 2.3633c1.8008 18.852 3.6602 38.352 6.5273 57.301 0.33594 1.5586 0.68359 3.5039 1.0078 5.4492 0.011718 0.011719 0.011718 0.011719 0.011718 0.023438 0.85156-4.7773 1.5-9.7188 2.1719-14.809l0.69531-5.2422c2.7344-23.062 4.6328-46.008 6.2773-67.332 1.0781-13.453 1.9922-26.902 2.9141-40.367 0.63672-9.1562 1.2461-18.289 1.9336-27.434 0.75781-12.91 1.5977-25.906 2.4375-38.891 0.83984-12.938 1.6797-25.871 2.4375-38.82l5.8789-91.609c1.1992-17.711 2.3867-35.41 3.8047-53.074 1.5703-20.316 3.4805-43.98 6.3711-67.379l0.88672-6.2148c1.0664-7.7031 2.1719-15.66 5.2188-23.281 1.7656-3.9961 4.9062-5.207 7.4141-5.0625 3.9727 0.22656 6.8047 3.6484 7.8359 6.9375 3.1445 10.43 4.3789 21.098 5.5938 31.402l0.71875 6.0234c1.9336 18.086 3.3359 36.371 4.7031 54.07l0.81641 10.609c1.668 25.223 3.2773 50.387 4.7539 75.539l1.4766 26.242c0.92578 16.367 1.8477 32.734 2.6758 49.105l3.9609 73.262c1.2852 24.406 2.6406 48.816 4.043 73.246 1.3789 24.07 2.8906 48.098 4.4883 72.133 1.5859 22.379 3.0703 42.613 5.1719 63.266 0.35938 2.7227 0.69531 5.6172 1.0078 8.5195 0.25391 2.2812 0.51563 4.5352 0.78125 6.7578 0.30078-2.5195 0.58984-5.0625 0.86328-7.6445l0.60156-5.3867c1.7148-15.949 2.8789-32.352 4.0195-48.215l1.6445-24.527c1.2109-19.836 2.4102-39.66 3.457-59.496l3.4922-69.098c0.61328-14.258 1.2852-28.57 1.9805-42.875 0.71875-15.121 1.4414-30.227 2.0742-45.348l3.8281-82.738c1.0781-24.035 2.2188-48.145 3.4688-72.227 1.2734-27.301 2.8203-54.66 4.4414-81.984 1.2227-20.508 2.6758-40.957 4.3086-61.441l0.875-9.0469c1.1172-11.867 2.2578-24.145 5.0273-36.156 0.10938-0.44531 0.25391-0.875 0.46875-1.2969 0.69531-2.207 1.9336-6 5.8086-7.0938 0.42578-0.25 0.89062-0.29688 1.3828-0.29688z"/>
  <path d="m60.191 597h1079.6v6h-1079.6z"/>
 </g>
</svg>
