<?xml version="1.0" encoding="UTF-8"?>
<svg width="1200pt" height="1200pt" version="1.1" viewBox="0 0 1200 1200" xmlns="http://www.w3.org/2000/svg">
 <path d="m1022.4 174h-855.6c-6 0-12 4.8008-12 10.801l-48 603.6c0 3.6016 1.1992 7.1992 3.6016 9.6016 2.3984 2.3984 6 3.6016 8.3984 3.6016l265.2-0.003907c32.398 67.199 97.199 114 169.2 126v56.398h-151.2c-7.1992 0-12 4.8008-12 12v67.199c0 7.1992 4.8008 12 12 12h386.4c7.1992 0 12-4.8008 12-12v-67.199c0-7.1992-4.8008-12-12-12h-151.2v-57.602c68.398-14.398 128.4-60 160.8-124.8h272.4c3.6016 0 6-1.1992 8.3984-3.6016 2.3984-2.3984 3.6016-6 3.6016-9.6016l-48-603.6c-1.1992-5.9922-6-10.793-12-10.793zm-319.2 604.8-3.6016-127.2h163.2l7.1992 127.2zm-380.4 0 7.1992-127.2h162l-3.6016 127.2zm-169.2-278.4h159.6l-7.1992 127.2-162 0.003906zm12-151.2c1.1992 0 1.1992 0 0 0h154.8l-7.1992 127.2h-157.2zm355.2 127.2 3.6016-127.2h144l3.6016 127.2zm151.2 24 3.6016 127.2-158.4 0.003906 3.6016-127.2zm20.398-151.2h154.8l7.1992 127.2h-159.6zm-1.1992-24-3.6016-127.2h151.2l7.1992 127.2zm-24 0h-141.6l2.3984-127.2h135.6zm-166.8 0h-153.6l7.1992-127.2h150zm0 24-3.6016 127.2h-158.4l7.1992-127.2zm-163.2 151.2h159.6l-3.6016 127.2-163.2 0.003906zm178.8 151.2h159.6l3.6016 127.2h-166.8zm183.6-24-3.6016-127.2h159.6l7.1992 127.2zm180-127.2h156l9.6016 127.2-159.6 0.003906zm-1.2031-24-7.1992-127.2h152.4l9.6016 127.2zm142.8-151.2h-151.2l-7.1992-127.2h147.6zm-692.4-127.2-7.1992 127.2h-153.6l9.6016-127.2zm-187.2 453.6h163.2l-7.1992 127.2h-165.6zm634.8 399.6h-362.4v-43.199h362.4zm-163.2-67.199h-36v-52.801h13.199c7.1992 0 14.398 0 22.801-1.1992zm-22.801-76.801c-74.398 0-142.8-40.801-180-105.6h358.8c-34.801 64.801-104.4 105.6-178.8 105.6zm303.6-128.4-7.1992-127.2h159.6l9.6016 127.2z" fill="#007335"/>
</svg>
